<?xml version='1.0' encoding='utf-8'?>
<svg xmlns="http://www.w3.org/2000/svg" version="1.0" width="486.696168322" height="1000" viewBox="0 0 0.673912682393 1.38466814875" preserveAspectRatio="xMidYMid meet">
<metadata>
Created by potrace 1.16, written by Peter Selinger 2001-2019
</metadata>
<g id="canonical-orientation" transform="matrix(0.00129204696279 -0.00341376956725 0.00341376956725 0.00129204696279 -0.128621330594 1.17885241366)"><g transform="translate(0.000000,213.000000) scale(0.100000,-0.100000)" fill="#000000" stroke="none">
<path d="M3130 2110 c-43 -13 -96 -19 -156 -20 -80 0 -96 -3 -128 -25 -20 -14 -48 -28 -61 -31 -27 -7 -75 -57 -75 -78 0 -7 -18 -38 -40 -69 -29 -41 -60 -68 -108 -96 -104 -61 -297 -126 -451 -152 -130 -22 -136 -22 -240 -6 -64 10 -198 18 -341 21 -176 4 -250 9 -295 22 -37 10 -104 17 -175 18 -77 1 -123 6 -140 16 -14 7 -68 17 -121 21 -66 5 -115 15 -159 33 -35 15 -91 31 -124 36 -97 16 -317 24 -348 12 -15 -6 -45 -35 -67 -65 -50 -68 -54 -88 -92 -417 -20 -166 13 -569 67 -825 8 -38 21 -115 28 -171 20 -143 43 -187 131 -246 90 -61 155 -80 270 -82 87 -1 94 1 150 34 75 45 135 124 159 211 9 35 22 78 27 95 5 17 9 50 9 75 0 24 6 70 14 101 13 55 25 74 107 171 19 23 45 57 58 75 l22 32 98 0 c54 0 142 7 197 15 59 9 170 15 277 15 167 0 181 1 238 25 44 19 85 27 157 31 83 5 119 13 252 59 85 30 169 57 185 61 47 10 271 119 323 157 26 19 74 49 107 67 83 46 232 145 280 187 22 19 85 67 141 107 55 40 110 86 122 102 12 16 30 38 41 49 31 33 41 60 35 97 -4 24 -1 38 10 47 20 17 20 49 0 72 -12 13 -13 22 -5 36 7 14 6 26 -4 44 -8 13 -18 33 -24 45 -5 11 -42 40 -82 65 -64 38 -81 44 -138 46 -43 2 -89 -4 -131 -17z" id="outline" />
</g>
</g><line id="main-length" data-role="main-length" x1="0.387105877077" y1="1.01099524289" x2="0.387105877077" y2="0.0109952428938" display="none" /></svg>