<?xml version='1.0' encoding='utf-8'?>
<svg xmlns="http://www.w3.org/2000/svg" version="1.0" width="461.244541485" height="1000" viewBox="0 0 0.606943273151 1.31588174723" preserveAspectRatio="xMidYMid meet">
<metadata>
Created by potrace 1.16, written by Peter Selinger 2001-2019
</metadata>
<g id="canonical-orientation" transform="matrix(0.005880885265 -0.000134676761794 0.000134676761794 0.005880885265 -0.0263966453116 0.00767657542225)"><g transform="translate(0.000000,223.000000) scale(0.100000,-0.100000)" fill="#000000" stroke="none">
<path d="M404 2216 c-55 -24 -111 -95 -185 -235 -85 -161 -90 -190 -40 -246 39 -45 37 -62 -16 -149 -34 -55 -37 -69 -45 -165 -12 -151 0 -474 22 -616 32 -206 32 -207 -27 -268 -70 -72 -100 -151 -107 -282 -7 -118 3 -155 55 -197 50 -40 154 -57 274 -45 50 5 182 7 295 4 179 -4 284 2 341 19 26 8 54 118 53 209 -2 125 -53 239 -130 295 -19 14 -45 32 -56 41 l-22 16 18 129 c62 465 60 685 -8 828 -14 29 -28 76 -32 105 -6 47 -4 55 19 79 48 51 46 68 -33 228 -74 152 -125 220 -184 248 -42 20 -149 21 -192 2z" id="outline" />
</g>
</g><line id="main-length" data-role="main-length" x1="0.273556482452" y1="1.00712531683" x2="0.273556482452" y2="0.00712531682515" display="none" /></svg>