<?xml version='1.0' encoding='utf-8'?>
<svg xmlns="http://www.w3.org/2000/svg" version="1.0" width="588.157386063" height="1000" viewBox="0 0 0.709102553802 1.20563402009" preserveAspectRatio="xMidYMid meet">
<metadata>
Created by potrace 1.16, written by Peter Selinger 2001-2019
</metadata>
<g id="canonical-orientation" transform="matrix(-0.00162268005739 -0.00326693830703 0.00326693830703 -0.00162268005739 0.220576596844 1.36660301865)"><g transform="translate(0.000000,238.000000) scale(0.100000,-0.100000)" fill="#000000" stroke="none">
<path d="M929 2369 c-19 -3 -79 -29 -134 -57 -55 -28 -122 -56 -150 -62 -27 -6 -74 -28 -104 -48 -52 -36 -204 -194 -249 -259 -35 -50 -169 -320 -188 -377 -9 -28 -22 -61 -30 -73 -36 -58 -87 -448 -69 -540 8 -43 50 -92 100 -114 35 -16 57 -18 191 -12 118 5 172 2 250 -11 54 -9 115 -19 134 -22 44 -7 184 -72 243 -113 25 -16 85 -70 135 -118 50 -48 144 -134 209 -190 302 -261 351 -280 878 -345 222 -27 270 -26 367 6 47 16 123 30 195 37 65 6 156 23 203 36 75 23 91 32 149 87 81 78 100 119 101 215 l0 75 -48 45 c-34 34 -66 53 -117 70 -154 52 -217 94 -336 221 -82 88 -126 126 -172 151 -34 18 -83 48 -108 66 -54 38 -174 95 -251 118 -29 8 -100 23 -158 31 -165 25 -183 34 -413 206 -87 65 -126 88 -148 88 -23 0 -44 14 -89 58 -64 62 -74 86 -37 95 12 3 50 15 85 28 62 22 65 22 135 6 168 -39 217 -33 244 30 26 64 2 190 -47 247 -33 37 -124 89 -187 105 -48 13 -57 31 -15 31 46 0 101 20 112 40 18 34 12 87 -14 118 -30 35 -117 82 -209 112 -60 19 -92 22 -247 24 -97 0 -192 -2 -211 -5z" id="outline" />
</g>
</g><line id="main-length" data-role="main-length" x1="0.391310675443" y1="1.0168550483" x2="0.391310675443" y2="0.0168550483034" display="none" /></svg>