<?xml version='1.0' encoding='utf-8'?>
<svg xmlns="http://www.w3.org/2000/svg" version="1.0" width="413.757327696" height="1000" viewBox="0 0 0.535869986057 1.2951311075" preserveAspectRatio="xMidYMid meet">
<metadata>
Created by potrace 1.16, written by Peter Selinger 2001-2019
</metadata>
<g id="canonical-orientation" transform="matrix(-0.000233010589215 -0.0034524402302 0.0034524402302 -0.000233010589215 0.0079223600333 1.31586904994)"><g transform="translate(0.000000,154.000000) scale(0.100000,-0.100000)" fill="#000000" stroke="none">
<path d="M222 1493 c-49 -49 -63 -85 -121 -313 -74 -294 -80 -322 -92 -474 -14 -186 -7 -417 16 -531 20 -96 27 -109 62 -128 16 -8 42 -22 59 -32 20 -12 39 -16 57 -11 32 8 99 64 92 77 -3 4 14 18 37 30 24 12 90 52 148 89 183 116 179 114 258 121 65 5 80 11 140 51 91 61 91 61 107 48 21 -18 88 -3 163 36 118 62 242 83 286 49 29 -22 190 -19 342 5 88 14 130 17 144 10 35 -19 128 -12 183 14 46 21 71 24 227 30 185 6 494 -7 595 -25 33 -6 114 -26 181 -45 69 -19 143 -34 173 -34 51 0 56 -2 93 -45 55 -62 71 -64 165 -16 108 54 136 80 178 163 50 101 48 141 -10 209 -42 49 -45 57 -45 110 0 47 -5 63 -24 86 -21 24 -32 28 -74 27 -33 0 -59 -7 -78 -21 -28 -20 -28 -20 -72 -2 -34 15 -86 21 -235 29 -106 5 -248 16 -317 25 -69 8 -188 19 -265 25 -77 5 -196 15 -265 22 -124 12 -125 12 -164 49 -26 25 -55 42 -88 50 -49 11 -51 11 -96 -21 l-45 -32 -36 19 c-64 35 -184 47 -319 33 -186 -20 -398 14 -470 75 -15 13 -47 31 -70 40 -30 12 -48 29 -64 57 -13 22 -42 54 -65 71 -36 26 -52 30 -100 30 -32 0 -78 -8 -103 -17 -71 -25 -149 -21 -227 13 -38 16 -76 32 -85 35 -11 3 -15 11 -12 20 7 19 -44 46 -86 46 -24 0 -42 -11 -78 -47z" id="outline" />
</g>
</g><line id="main-length" data-role="main-length" x1="0.209236580261" y1="1.01106584048" x2="0.209236580261" y2="0.011065840479" display="none" /></svg>