<?xml version='1.0' encoding='utf-8'?>
<svg xmlns="http://www.w3.org/2000/svg" version="1.0" width="478.972642318" height="1000" viewBox="0 0 0.648741693053 1.35444414928" preserveAspectRatio="xMidYMid meet">
<metadata>
Created by potrace 1.16, written by Peter Selinger 2001-2019
</metadata>
<g id="canonical-orientation" transform="matrix(0.00274737311249 -0.000134939740299 0.000134939740299 0.00274737311249 -0.0600050037163 0.0170024072777)"><g transform="translate(0.000000,490.000000) scale(0.100000,-0.100000)" fill="#000000" stroke="none">
<path d="M1105 4889 c-94 -31 -123 -46 -163 -83 -24 -22 -58 -61 -75 -86 -16 -25 -54 -74 -83 -110 -28 -36 -63 -90 -77 -120 -17 -36 -62 -94 -128 -165 -99 -107 -105 -115 -190 -291 -193 -399 -279 -770 -243 -1057 7 -56 13 -187 14 -292 0 -104 6 -210 12 -235 6 -25 12 -151 14 -280 1 -129 7 -284 13 -345 16 -159 14 -312 -5 -392 -12 -52 -14 -94 -9 -179 8 -136 -6 -222 -45 -284 -33 -52 -50 -108 -50 -165 -1 -22 -14 -74 -31 -115 -53 -131 -74 -361 -39 -429 30 -60 112 -128 178 -147 31 -9 94 -30 140 -45 46 -16 97 -29 113 -29 17 0 75 -9 130 -21 88 -18 112 -19 187 -10 48 6 161 18 252 26 90 9 169 19 174 23 5 3 127 9 270 14 333 11 397 18 466 51 30 15 61 27 68 27 8 0 48 18 90 40 58 30 84 51 105 83 15 23 48 71 73 107 72 104 85 135 97 236 16 142 1 237 -64 382 -28 65 -64 135 -80 157 -15 22 -40 60 -56 84 -45 71 -94 114 -153 135 -30 10 -60 23 -65 27 -6 4 -45 19 -88 33 -67 22 -104 26 -262 32 l-184 7 -12 34 c-16 50 -27 198 -18 246 4 23 10 87 14 142 3 55 10 150 16 211 8 81 8 141 0 215 -6 58 -12 329 -13 609 -3 434 0 530 16 680 16 156 17 194 6 348 -7 95 -9 184 -6 198 13 51 17 536 5 574 -34 102 -125 171 -225 169 -33 0 -72 -5 -89 -10z" id="outline" />
</g>
</g><line id="main-length" data-role="main-length" x1="0.256456674708" y1="1.00748023826" x2="0.256456674708" y2="0.00748023825848" display="none" /></svg>